<?xml version="1.0" encoding="UTF-8"?>
<svg xmlns="http://www.w3.org/2000/svg" width="512" height="512" viewBox="0 0 512 512" role="img" aria-label="Arun Acharya favicon">
  <defs>
    <linearGradient id="bg" x1="78" y1="38" x2="430" y2="470" gradientUnits="userSpaceOnUse">
      <stop offset="0" stop-color="#111b24"/>
      <stop offset="0.5" stop-color="#0e0d0c"/>
      <stop offset="1" stop-color="#19120c"/>
    </linearGradient>
    <radialGradient id="cyanGlow" cx="0" cy="0" r="1" gradientUnits="userSpaceOnUse" gradientTransform="translate(152 118) rotate(44) scale(306 250)">
      <stop offset="0" stop-color="#5ee7ff" stop-opacity="0.62"/>
      <stop offset="0.38" stop-color="#2acbe8" stop-opacity="0.2"/>
      <stop offset="1" stop-color="#2acbe8" stop-opacity="0"/>
    </radialGradient>
    <radialGradient id="goldGlow" cx="0" cy="0" r="1" gradientUnits="userSpaceOnUse" gradientTransform="translate(374 404) rotate(-139) scale(250 220)">
      <stop offset="0" stop-color="#d8b878" stop-opacity="0.48"/>
      <stop offset="0.42" stop-color="#bfa17f" stop-opacity="0.14"/>
      <stop offset="1" stop-color="#bfa17f" stop-opacity="0"/>
    </radialGradient>
    <linearGradient id="mark" x1="132" y1="84" x2="376" y2="430" gradientUnits="userSpaceOnUse">
      <stop offset="0" stop-color="#ffffff"/>
      <stop offset="0.34" stop-color="#e6fbff"/>
      <stop offset="0.66" stop-color="#8fe9ff"/>
      <stop offset="1" stop-color="#d8b878"/>
    </linearGradient>
    <linearGradient id="edge" x1="92" y1="74" x2="428" y2="430" gradientUnits="userSpaceOnUse">
      <stop offset="0" stop-color="#ffffff" stop-opacity="0.26"/>
      <stop offset="0.5" stop-color="#5ee7ff" stop-opacity="0.11"/>
      <stop offset="1" stop-color="#d8b878" stop-opacity="0.2"/>
    </linearGradient>
    <filter id="markShadow" x="-30%" y="-30%" width="160%" height="160%" color-interpolation-filters="sRGB">
      <feDropShadow dx="0" dy="18" stdDeviation="22" flood-color="#000000" flood-opacity="0.58"/>
      <feDropShadow dx="0" dy="0" stdDeviation="14" flood-color="#5ee7ff" flood-opacity="0.16"/>
    </filter>
  </defs>
  <rect width="512" height="512" rx="116" fill="#0e0d0c"/>
  <rect x="18" y="18" width="476" height="476" rx="102" fill="url(#bg)"/>
  <rect x="18" y="18" width="476" height="476" rx="102" fill="url(#cyanGlow)"/>
  <rect x="18" y="18" width="476" height="476" rx="102" fill="url(#goldGlow)"/>
  <path d="M78 382C126 430 196 456 276 456C342 456 394 439 436 405" fill="none" stroke="#d8b878" stroke-opacity="0.16" stroke-width="18" stroke-linecap="round"/>
  <path d="M78 116C122 76 180 56 250 56C325 56 386 78 434 122" fill="none" stroke="#5ee7ff" stroke-opacity="0.17" stroke-width="18" stroke-linecap="round"/>
  <rect x="18" y="18" width="476" height="476" rx="102" fill="none" stroke="url(#edge)" stroke-width="2"/>
  <g filter="url(#markShadow)">
    <path fill="url(#mark)" fill-rule="evenodd" d="M256 70L421 428H333L304 357H208L179 428H91L256 70ZM231 296H281L256 176L231 296Z"/>
  </g>
</svg>